<svg viewBox="40 131 452 239" fill="none" xmlns="http://www.w3.org/2000/svg">
<path d="M233.175 137C242.601 137 250.243 144.641 250.243 154.067V312.798H244.555V308.246C244.555 307.932 244.299 307.677 243.985 307.677H240.003V300.85C240.003 300.536 239.748 300.282 239.435 300.281H234.501C233.653 298.362 232.99 296.277 232.607 294.027V273.34C232.607 273.285 232.615 273.23 232.631 273.178L234.859 265.656C234.875 265.604 234.883 265.549 234.883 265.494V255.905C234.883 255.591 234.628 255.336 234.313 255.336H229.763C229.449 255.336 229.193 255.591 229.193 255.905V259.318H225.211V255.905C225.211 255.591 224.956 255.336 224.642 255.336H220.091C219.777 255.336 219.522 255.591 219.521 255.905V259.318H215.539V255.905C215.539 255.591 215.285 255.336 214.971 255.336H210.419C210.105 255.336 209.85 255.591 209.85 255.905V259.318H205.868V255.905C205.868 255.591 205.613 255.336 205.299 255.336H200.747C200.433 255.336 200.179 255.591 200.179 255.905V265.494C200.179 265.549 200.187 265.604 200.202 265.656L201.358 269.56H181.987C181.935 269.559 181.882 269.559 181.83 269.559V242.819H195.483C196.043 242.819 196.265 242.095 195.803 241.78L183.198 233.22C183.14 233.18 183.09 233.13 183.05 233.072L148.59 183.191C148.364 182.864 147.879 182.864 147.653 183.191L113.193 233.072C113.153 233.13 113.103 233.18 113.045 233.22L100.44 241.78C99.9775 242.095 100.2 242.819 100.76 242.819H113.56V273.602C113.045 277.358 111.42 281.862 106.875 284.351C98.1186 289.145 89.5499 293.273 81.3584 297.562V304.832H70.8906C70.5767 304.832 70.3216 305.086 70.3213 305.4V312.228H62.3564C62.0425 312.228 61.7882 312.483 61.7881 312.797V321.33H57.2363C56.9223 321.33 56.6671 321.585 56.667 321.899V327.589H52.1162C51.9454 327.589 51.7938 327.666 51.6895 327.785V364H46V154.067C46.0002 144.642 53.6415 137 63.0674 137H233.175ZM149.402 248.908H155.865V251.949H149.402V268.676H146.171V251.949H139.708V248.908H146.171V242.825H149.402V248.908Z" fill="#D6673B"/>
<path d="M167.749 362.862V332.14C167.749 321.143 158.834 312.228 147.837 312.228C136.84 312.228 127.925 321.143 127.925 332.14V362.862C127.925 363.49 128.434 364 129.063 364H166.611C167.24 364 167.749 363.49 167.749 362.862Z" fill="#D6673B"/>
<path d="M196.871 324.826C196.871 320.71 200.176 317.343 204.354 317.343H224.433C228.549 317.343 231.917 320.71 231.917 324.826V338.545C231.917 340.603 230.233 342.287 228.175 342.287H223.997C221.877 342.287 220.255 340.603 220.255 338.545V332.808C220.255 330.688 218.572 329.004 216.514 329.004H213.022C210.964 329.004 209.342 330.688 209.342 332.808V346.963C209.342 349.021 210.964 350.705 213.022 350.705H228.923C231.044 350.705 232.727 352.389 232.727 354.447V360.371C232.727 362.429 231.044 364.112 228.923 364.112H204.354C200.176 364.112 196.871 360.745 196.871 356.629V324.826Z" fill="#D6673B"/>
<path d="M238.325 317.343H270.44C271.5 317.343 272.311 318.153 272.311 319.214V327.133C272.311 328.193 271.5 329.004 270.44 329.004H250.049C248.988 329.004 248.178 329.877 248.178 330.875V334.18C248.178 335.24 248.988 336.051 250.049 336.051H263.456C264.454 336.051 265.327 336.861 265.327 337.921V345.841C265.327 346.901 264.454 347.712 263.456 347.712H250.049C248.988 347.712 248.178 348.585 248.178 349.583V350.518C248.178 351.578 248.988 352.389 250.049 352.389H270.44C271.5 352.389 272.311 353.262 272.311 354.26V362.242C272.311 363.302 271.5 364.112 270.44 364.112H238.325C237.265 364.112 236.454 363.302 236.454 362.242V319.214C236.454 318.153 237.265 317.343 238.325 317.343Z" fill="#D6673B"/>
<path d="M313.329 317.343C314.326 317.343 315.137 318.216 315.137 319.214V328.318C315.137 329.316 314.326 330.126 313.329 330.126H302.977C301.979 330.126 301.169 330.937 301.169 332.06V362.242C301.169 363.302 300.296 364.112 299.236 364.112H291.316C290.318 364.112 289.383 363.302 289.383 362.242V332.06C289.383 330.937 288.572 330.126 287.574 330.126H277.285C276.225 330.126 275.414 329.316 275.414 328.318V319.214C275.414 318.216 276.225 317.343 277.285 317.343H313.329Z" fill="#D6673B"/>
<path d="M334.204 340.54C334.017 341.414 334.703 342.287 335.638 342.287H339.754C340.689 342.287 341.313 341.414 341.188 340.54L339.068 330.189C338.943 329.503 338.382 329.004 337.696 329.004C337.01 329.004 336.449 329.503 336.262 330.189L334.204 340.54ZM318.24 361.867L326.846 318.839C327.033 317.966 327.781 317.343 328.716 317.343H346.676C347.549 317.343 348.36 317.966 348.484 318.839L357.09 361.867C357.339 363.052 356.466 364.112 355.282 364.112H347.424C346.489 364.112 345.741 363.489 345.553 362.616L344.119 355.444C343.994 354.571 343.184 353.948 342.311 353.948H333.082C332.146 353.948 331.398 354.571 331.211 355.444L329.777 362.616C329.652 363.489 328.841 364.112 327.968 364.112H320.111C318.926 364.112 318.053 363.052 318.24 361.867Z" fill="#D6673B"/>
<path d="M398.159 317.343C399.157 317.343 399.968 318.216 399.968 319.214V328.318C399.968 329.316 399.157 330.126 398.159 330.126H387.808C386.81 330.126 385.999 330.937 385.999 332.06V362.242C385.999 363.302 385.126 364.112 384.066 364.112H376.147C375.149 364.112 374.213 363.302 374.213 362.242V332.06C374.213 330.937 373.403 330.126 372.405 330.126H362.116C361.056 330.126 360.245 329.316 360.245 328.318V319.214C360.245 318.216 361.056 317.343 362.116 317.343H398.159Z" fill="#D6673B"/>
<path d="M404.942 317.343H437.057C438.117 317.343 438.927 318.153 438.927 319.214V327.133C438.927 328.193 438.117 329.004 437.057 329.004H416.665C415.605 329.004 414.794 329.877 414.794 330.875V334.18C414.794 335.24 415.605 336.051 416.665 336.051H430.072C431.07 336.051 431.943 336.861 431.943 337.921V345.841C431.943 346.901 431.07 347.712 430.072 347.712H416.665C415.605 347.712 414.794 348.585 414.794 349.583V350.518C414.794 351.578 415.605 352.389 416.665 352.389H437.057C438.117 352.389 438.927 353.262 438.927 354.26V362.242C438.927 363.302 438.117 364.112 437.057 364.112H404.942C403.881 364.112 403.071 363.302 403.071 362.242V319.214C403.071 318.153 403.881 317.343 404.942 317.343Z" fill="#D6673B"/>
<path d="M458.618 340.54C458.431 341.414 459.117 342.287 460.053 342.287H464.168C465.104 342.287 465.727 341.414 465.603 340.54L463.482 330.189C463.358 329.503 462.796 329.004 462.11 329.004C461.425 329.004 460.863 329.503 460.676 330.189L458.618 340.54ZM442.654 361.867L451.26 318.839C451.447 317.966 452.195 317.343 453.131 317.343H471.09C471.963 317.343 472.774 317.966 472.899 318.839L481.504 361.867C481.754 363.052 480.881 364.112 479.696 364.112H471.839C470.903 364.112 470.155 363.489 469.968 362.616L468.533 355.444C468.409 354.571 467.598 353.948 466.725 353.948H457.496C456.56 353.948 455.812 354.571 455.625 355.444L454.191 362.616C454.066 363.489 453.255 364.112 452.382 364.112H444.525C443.34 364.112 442.467 363.052 442.654 361.867Z" fill="#D6673B"/>
<path d="M264.886 298.288C265.617 298.425 266.237 298.796 266.745 299.404C267.253 300.011 267.507 300.718 267.507 301.523C267.507 302.18 267.34 302.775 267.005 303.308C266.683 303.829 266.206 304.244 265.574 304.554C264.942 304.851 264.186 305 263.306 305H258.806V292.004H263.175C264.489 292.004 265.487 292.308 266.169 292.915C266.863 293.523 267.21 294.31 267.21 295.276C267.21 296.082 266.993 296.739 266.559 297.247C266.125 297.743 265.568 298.09 264.886 298.288ZM260.108 297.749H263.138C264.018 297.749 264.694 297.545 265.165 297.136C265.648 296.714 265.89 296.138 265.89 295.407C265.89 294.688 265.648 294.124 265.165 293.715C264.694 293.306 264 293.101 263.082 293.101H260.108V297.749ZM263.213 303.903C264.155 303.903 264.886 303.68 265.406 303.234C265.939 302.788 266.206 302.174 266.206 301.393C266.206 300.612 265.927 299.993 265.369 299.534C264.824 299.063 264.086 298.827 263.157 298.827H260.108V303.903H263.213ZM272.224 292.934C271.964 292.934 271.74 292.841 271.555 292.655C271.369 292.469 271.276 292.24 271.276 291.967C271.276 291.694 271.369 291.471 271.555 291.298C271.74 291.112 271.964 291.019 272.224 291.019C272.484 291.019 272.707 291.112 272.893 291.298C273.079 291.471 273.172 291.694 273.172 291.967C273.172 292.24 273.079 292.469 272.893 292.655C272.707 292.841 272.484 292.934 272.224 292.934ZM272.875 294.849V305H271.573V294.849H272.875ZM280.99 305.149C279.825 305.149 278.871 304.882 278.127 304.349C277.396 303.804 276.987 303.066 276.9 302.137H278.239C278.301 302.707 278.567 303.172 279.038 303.531C279.521 303.878 280.166 304.052 280.972 304.052C281.678 304.052 282.23 303.884 282.626 303.55C283.035 303.215 283.24 302.8 283.24 302.304C283.24 301.957 283.128 301.672 282.905 301.449C282.682 301.226 282.397 301.052 282.05 300.928C281.715 300.792 281.257 300.649 280.674 300.501C279.918 300.302 279.305 300.104 278.834 299.906C278.363 299.707 277.96 299.416 277.625 299.032C277.303 298.635 277.142 298.109 277.142 297.452C277.142 296.956 277.29 296.497 277.588 296.076C277.885 295.654 278.307 295.32 278.852 295.072C279.398 294.824 280.017 294.7 280.711 294.7C281.802 294.7 282.682 294.979 283.351 295.537C284.021 296.082 284.38 296.838 284.43 297.805H283.128C283.091 297.21 282.856 296.733 282.422 296.373C282 296.001 281.418 295.816 280.674 295.816C280.017 295.816 279.484 295.97 279.075 296.28C278.666 296.59 278.462 296.974 278.462 297.433C278.462 297.83 278.579 298.158 278.815 298.418C279.063 298.666 279.367 298.865 279.726 299.013C280.085 299.15 280.569 299.305 281.176 299.478C281.907 299.676 282.49 299.869 282.924 300.055C283.358 300.24 283.729 300.513 284.039 300.873C284.349 301.232 284.51 301.709 284.523 302.304C284.523 302.85 284.374 303.339 284.077 303.773C283.779 304.194 283.364 304.529 282.831 304.777C282.298 305.025 281.684 305.149 280.99 305.149ZM297.83 299.404C297.83 299.85 297.818 300.191 297.793 300.426H289.371C289.408 301.195 289.594 301.852 289.929 302.397C290.263 302.942 290.703 303.358 291.249 303.643C291.794 303.915 292.389 304.052 293.034 304.052C293.876 304.052 294.583 303.847 295.153 303.438C295.736 303.029 296.12 302.478 296.306 301.784H297.682C297.434 302.775 296.901 303.587 296.083 304.219C295.277 304.839 294.261 305.149 293.034 305.149C292.079 305.149 291.224 304.938 290.468 304.517C289.712 304.083 289.117 303.475 288.683 302.695C288.262 301.901 288.051 300.978 288.051 299.924C288.051 298.871 288.262 297.947 288.683 297.154C289.104 296.361 289.693 295.754 290.449 295.332C291.205 294.911 292.067 294.7 293.034 294.7C294 294.7 294.843 294.911 295.562 295.332C296.293 295.754 296.851 296.324 297.235 297.043C297.632 297.749 297.83 298.536 297.83 299.404ZM296.51 299.367C296.523 298.611 296.368 297.966 296.045 297.433C295.736 296.9 295.308 296.497 294.763 296.225C294.217 295.952 293.622 295.816 292.978 295.816C292.011 295.816 291.187 296.125 290.505 296.745C289.823 297.365 289.445 298.239 289.371 299.367H296.51ZM303.186 296.652C303.471 296.02 303.905 295.53 304.488 295.183C305.082 294.836 305.808 294.663 306.663 294.663V296.02H306.31C305.368 296.02 304.611 296.274 304.041 296.782C303.471 297.291 303.186 298.14 303.186 299.329V305H301.885V294.849H303.186V296.652ZM310.945 292.934C310.684 292.934 310.461 292.841 310.275 292.655C310.089 292.469 309.996 292.24 309.996 291.967C309.996 291.694 310.089 291.471 310.275 291.298C310.461 291.112 310.684 291.019 310.945 291.019C311.205 291.019 311.428 291.112 311.614 291.298C311.8 291.471 311.893 291.694 311.893 291.967C311.893 292.24 311.8 292.469 311.614 292.655C311.428 292.841 311.205 292.934 310.945 292.934ZM311.595 294.849V305H310.294V294.849H311.595ZM315.621 299.924C315.621 298.871 315.831 297.954 316.253 297.173C316.674 296.379 317.257 295.772 318.001 295.351C318.744 294.917 319.593 294.7 320.548 294.7C321.8 294.7 322.828 295.01 323.634 295.63C324.452 296.249 324.979 297.092 325.214 298.158H323.82C323.646 297.427 323.268 296.857 322.686 296.448C322.116 296.026 321.403 295.816 320.548 295.816C319.866 295.816 319.252 295.97 318.707 296.28C318.162 296.59 317.728 297.055 317.406 297.675C317.096 298.282 316.941 299.032 316.941 299.924C316.941 300.817 317.096 301.573 317.406 302.193C317.728 302.812 318.162 303.277 318.707 303.587C319.252 303.897 319.866 304.052 320.548 304.052C321.403 304.052 322.116 303.847 322.686 303.438C323.268 303.017 323.646 302.434 323.82 301.691H325.214C324.979 302.732 324.452 303.568 323.634 304.201C322.816 304.833 321.787 305.149 320.548 305.149C319.593 305.149 318.744 304.938 318.001 304.517C317.257 304.083 316.674 303.475 316.253 302.695C315.831 301.901 315.621 300.978 315.621 299.924ZM328.696 299.906C328.696 298.865 328.901 297.954 329.31 297.173C329.731 296.379 330.308 295.772 331.039 295.351C331.782 294.917 332.619 294.7 333.549 294.7C334.516 294.7 335.346 294.923 336.04 295.369C336.747 295.816 337.255 296.386 337.565 297.08V294.849H338.866V305H337.565V302.75C337.242 303.444 336.728 304.021 336.021 304.479C335.327 304.926 334.497 305.149 333.53 305.149C332.613 305.149 331.782 304.932 331.039 304.498C330.308 304.064 329.731 303.451 329.31 302.657C328.901 301.864 328.696 300.947 328.696 299.906ZM337.565 299.924C337.565 299.106 337.397 298.387 337.063 297.768C336.728 297.148 336.269 296.671 335.687 296.336C335.117 296.001 334.485 295.834 333.79 295.834C333.072 295.834 332.427 295.995 331.857 296.318C331.287 296.64 330.834 297.111 330.5 297.731C330.177 298.338 330.016 299.063 330.016 299.906C330.016 300.736 330.177 301.468 330.5 302.1C330.834 302.719 331.287 303.197 331.857 303.531C332.427 303.853 333.072 304.015 333.79 304.015C334.485 304.015 335.117 303.847 335.687 303.513C336.269 303.178 336.728 302.701 337.063 302.081C337.397 301.461 337.565 300.742 337.565 299.924ZM358.596 295.741C358.596 296.857 358.231 297.755 357.499 298.437C356.768 299.119 355.671 299.46 354.209 299.46H351.587V305H350.286V292.004H354.209C355.659 292.004 356.749 292.345 357.481 293.027C358.224 293.708 358.596 294.613 358.596 295.741ZM354.209 298.344C356.241 298.344 357.258 297.476 357.258 295.741C357.258 294.874 357.016 294.217 356.533 293.77C356.049 293.324 355.274 293.101 354.209 293.101H351.587V298.344H354.209ZM371.638 299.404C371.638 299.85 371.625 300.191 371.6 300.426H363.178C363.215 301.195 363.401 301.852 363.736 302.397C364.071 302.942 364.511 303.358 365.056 303.643C365.601 303.915 366.196 304.052 366.841 304.052C367.684 304.052 368.39 303.847 368.96 303.438C369.543 303.029 369.927 302.478 370.113 301.784H371.489C371.241 302.775 370.708 303.587 369.89 304.219C369.084 304.839 368.068 305.149 366.841 305.149C365.887 305.149 365.031 304.938 364.275 304.517C363.519 304.083 362.924 303.475 362.49 302.695C362.069 301.901 361.858 300.978 361.858 299.924C361.858 298.871 362.069 297.947 362.49 297.154C362.912 296.361 363.501 295.754 364.257 295.332C365.013 294.911 365.874 294.7 366.841 294.7C367.808 294.7 368.651 294.911 369.369 295.332C370.101 295.754 370.658 296.324 371.043 297.043C371.439 297.749 371.638 298.536 371.638 299.404ZM370.318 299.367C370.33 298.611 370.175 297.966 369.853 297.433C369.543 296.9 369.115 296.497 368.57 296.225C368.025 295.952 367.43 295.816 366.785 295.816C365.818 295.816 364.994 296.125 364.312 296.745C363.631 297.365 363.253 298.239 363.178 299.367H370.318ZM380.452 294.663C381.666 294.663 382.658 295.041 383.426 295.797C384.195 296.541 384.579 297.625 384.579 299.051V305H383.296V299.199C383.296 298.096 383.017 297.253 382.46 296.671C381.914 296.088 381.164 295.797 380.21 295.797C379.231 295.797 378.45 296.107 377.867 296.727C377.285 297.346 376.993 298.257 376.993 299.46V305H375.692V294.849H376.993V296.578C377.316 295.958 377.781 295.487 378.388 295.165C378.995 294.83 379.683 294.663 380.452 294.663ZM390.822 295.946V302.248C390.822 302.868 390.94 303.296 391.176 303.531C391.411 303.767 391.826 303.884 392.421 303.884H393.611V305H392.217C391.3 305 390.618 304.789 390.172 304.368C389.726 303.934 389.502 303.228 389.502 302.248V295.946H388.089V294.849H389.502V292.302H390.822V294.849H393.611V295.946H390.822ZM398.082 292.934C397.821 292.934 397.598 292.841 397.412 292.655C397.226 292.469 397.133 292.24 397.133 291.967C397.133 291.694 397.226 291.471 397.412 291.298C397.598 291.112 397.821 291.019 398.082 291.019C398.342 291.019 398.565 291.112 398.751 291.298C398.937 291.471 399.03 291.694 399.03 291.967C399.03 292.24 398.937 292.469 398.751 292.655C398.565 292.841 398.342 292.934 398.082 292.934ZM398.732 294.849V305H397.431V294.849H398.732ZM402.758 299.924C402.758 298.871 402.969 297.954 403.39 297.173C403.811 296.379 404.394 295.772 405.138 295.351C405.881 294.917 406.73 294.7 407.685 294.7C408.937 294.7 409.965 295.01 410.771 295.63C411.589 296.249 412.116 297.092 412.351 298.158H410.957C410.783 297.427 410.405 296.857 409.823 296.448C409.253 296.026 408.54 295.816 407.685 295.816C407.003 295.816 406.389 295.97 405.844 296.28C405.299 296.59 404.865 297.055 404.543 297.675C404.233 298.282 404.078 299.032 404.078 299.924C404.078 300.817 404.233 301.573 404.543 302.193C404.865 302.812 405.299 303.277 405.844 303.587C406.389 303.897 407.003 304.052 407.685 304.052C408.54 304.052 409.253 303.847 409.823 303.438C410.405 303.017 410.783 302.434 410.957 301.691H412.351C412.116 302.732 411.589 303.568 410.771 304.201C409.953 304.833 408.924 305.149 407.685 305.149C406.73 305.149 405.881 304.938 405.138 304.517C404.394 304.083 403.811 303.475 403.39 302.695C402.969 301.901 402.758 300.978 402.758 299.924ZM420.872 305.149C419.917 305.149 419.056 304.938 418.287 304.517C417.531 304.083 416.93 303.475 416.484 302.695C416.05 301.901 415.833 300.978 415.833 299.924C415.833 298.871 416.056 297.954 416.503 297.173C416.949 296.379 417.556 295.772 418.325 295.351C419.093 294.917 419.954 294.7 420.909 294.7C421.863 294.7 422.725 294.917 423.493 295.351C424.274 295.772 424.881 296.379 425.315 297.173C425.761 297.954 425.984 298.871 425.984 299.924C425.984 300.966 425.761 301.883 425.315 302.676C424.869 303.469 424.255 304.083 423.475 304.517C422.694 304.938 421.826 305.149 420.872 305.149ZM420.872 304.015C421.541 304.015 422.161 303.866 422.731 303.568C423.301 303.259 423.76 302.8 424.107 302.193C424.466 301.573 424.646 300.817 424.646 299.924C424.646 299.032 424.472 298.282 424.125 297.675C423.778 297.055 423.32 296.596 422.749 296.299C422.179 295.989 421.56 295.834 420.89 295.834C420.221 295.834 419.601 295.989 419.031 296.299C418.461 296.596 418.002 297.055 417.655 297.675C417.321 298.282 417.153 299.032 417.153 299.924C417.153 300.817 417.321 301.573 417.655 302.193C418.002 302.8 418.455 303.259 419.012 303.568C419.583 303.866 420.202 304.015 420.872 304.015ZM433.525 305.149C432.36 305.149 431.406 304.882 430.662 304.349C429.931 303.804 429.522 303.066 429.435 302.137H430.774C430.836 302.707 431.102 303.172 431.573 303.531C432.057 303.878 432.701 304.052 433.507 304.052C434.213 304.052 434.765 303.884 435.162 303.55C435.571 303.215 435.775 302.8 435.775 302.304C435.775 301.957 435.663 301.672 435.44 301.449C435.217 301.226 434.932 301.052 434.585 300.928C434.251 300.792 433.792 300.649 433.209 300.501C432.453 300.302 431.84 300.104 431.369 299.906C430.898 299.707 430.495 299.416 430.16 299.032C429.838 298.635 429.677 298.109 429.677 297.452C429.677 296.956 429.826 296.497 430.123 296.076C430.421 295.654 430.842 295.32 431.387 295.072C431.933 294.824 432.552 294.7 433.247 294.7C434.337 294.7 435.217 294.979 435.887 295.537C436.556 296.082 436.915 296.838 436.965 297.805H435.663C435.626 297.21 435.391 296.733 434.957 296.373C434.536 296.001 433.953 295.816 433.209 295.816C432.552 295.816 432.019 295.97 431.61 296.28C431.201 296.59 430.997 296.974 430.997 297.433C430.997 297.83 431.115 298.158 431.35 298.418C431.598 298.666 431.902 298.865 432.261 299.013C432.621 299.15 433.104 299.305 433.711 299.478C434.443 299.676 435.025 299.869 435.459 300.055C435.893 300.24 436.265 300.513 436.575 300.873C436.884 301.232 437.046 301.709 437.058 302.304C437.058 302.85 436.909 303.339 436.612 303.773C436.314 304.194 435.899 304.529 435.366 304.777C434.833 305.025 434.22 305.149 433.525 305.149ZM442.873 295.946V302.248C442.873 302.868 442.991 303.296 443.226 303.531C443.462 303.767 443.877 303.884 444.472 303.884H445.662V305H444.267C443.35 305 442.668 304.789 442.222 304.368C441.776 303.934 441.553 303.228 441.553 302.248V295.946H440.14V294.849H441.553V292.302H442.873V294.849H445.662V295.946H442.873ZM448.886 299.906C448.886 298.865 449.091 297.954 449.5 297.173C449.921 296.379 450.498 295.772 451.229 295.351C451.973 294.917 452.809 294.7 453.739 294.7C454.706 294.7 455.536 294.923 456.23 295.369C456.937 295.816 457.445 296.386 457.755 297.08V294.849H459.056V305H457.755V302.75C457.432 303.444 456.918 304.021 456.212 304.479C455.518 304.926 454.687 305.149 453.72 305.149C452.803 305.149 451.973 304.932 451.229 304.498C450.498 304.064 449.921 303.451 449.5 302.657C449.091 301.864 448.886 300.947 448.886 299.906ZM457.755 299.924C457.755 299.106 457.587 298.387 457.253 297.768C456.918 297.148 456.46 296.671 455.877 296.336C455.307 296.001 454.675 295.834 453.981 295.834C453.262 295.834 452.617 295.995 452.047 296.318C451.477 296.64 451.024 297.111 450.69 297.731C450.368 298.338 450.206 299.063 450.206 299.906C450.206 300.736 450.368 301.468 450.69 302.1C451.024 302.719 451.477 303.197 452.047 303.531C452.617 303.853 453.262 304.015 453.981 304.015C454.675 304.015 455.307 303.847 455.877 303.513C456.46 303.178 456.918 302.701 457.253 302.081C457.587 301.461 457.755 300.742 457.755 299.924ZM465.002 291.242V305H463.701V291.242H465.002ZM469.027 299.906C469.027 298.865 469.232 297.954 469.641 297.173C470.062 296.379 470.639 295.772 471.37 295.351C472.114 294.917 472.95 294.7 473.88 294.7C474.847 294.7 475.677 294.923 476.371 295.369C477.078 295.816 477.586 296.386 477.896 297.08V294.849H479.197V305H477.896V302.75C477.574 303.444 477.059 304.021 476.353 304.479C475.659 304.926 474.828 305.149 473.861 305.149C472.944 305.149 472.114 304.932 471.37 304.498C470.639 304.064 470.062 303.451 469.641 302.657C469.232 301.864 469.027 300.947 469.027 299.906ZM477.896 299.924C477.896 299.106 477.729 298.387 477.394 297.768C477.059 297.148 476.601 296.671 476.018 296.336C475.448 296.001 474.816 295.834 474.122 295.834C473.403 295.834 472.758 295.995 472.188 296.318C471.618 296.64 471.166 297.111 470.831 297.731C470.509 298.338 470.348 299.063 470.348 299.906C470.348 300.736 470.509 301.468 470.831 302.1C471.166 302.719 471.618 303.197 472.188 303.531C472.758 303.853 473.403 304.015 474.122 304.015C474.816 304.015 475.448 303.847 476.018 303.513C476.601 303.178 477.059 302.701 477.394 302.081C477.729 301.461 477.896 300.742 477.896 299.924ZM476.966 291.446C476.966 292.103 476.743 292.649 476.297 293.083C475.863 293.516 475.243 293.733 474.438 293.733C473.632 293.733 473.012 293.516 472.579 293.083C472.145 292.649 471.928 292.103 471.928 291.446V291.205H472.746C472.746 292.196 473.31 292.692 474.438 292.692C475.566 292.692 476.13 292.196 476.13 291.205H476.966V291.446Z" fill="#D6673B"/>
</svg>
