<svg width="500" height="500" viewBox="0 0 500 500" fill="none" xmlns="http://www.w3.org/2000/svg">
<rect width="500" height="500" fill="#EEE8DE"/>
<path d="M353.701 62C365.37 62.0001 374.829 71.4595 374.829 83.1279V279.617H367.787V273.983C367.787 273.595 367.472 273.278 367.083 273.278H362.153V264.827C362.153 264.439 361.838 264.123 361.449 264.123H355.342C354.292 261.747 353.471 259.166 352.998 256.381V230.773C352.998 230.706 353.008 230.638 353.027 230.573L355.786 221.261C355.805 221.196 355.815 221.129 355.815 221.062V209.19C355.815 208.802 355.499 208.486 355.11 208.486H349.477C349.088 208.486 348.773 208.802 348.772 209.19V213.416H343.843V209.19C343.842 208.802 343.527 208.487 343.139 208.486H337.504C337.115 208.487 336.8 208.802 336.8 209.19V213.416H331.87V209.19C331.87 208.802 331.555 208.487 331.166 208.486H325.531C325.143 208.487 324.827 208.802 324.827 209.19V213.416H319.897V209.19C319.897 208.802 319.582 208.486 319.193 208.486H313.56C313.171 208.486 312.855 208.802 312.854 209.19V221.062C312.855 221.129 312.865 221.196 312.884 221.261L314.315 226.093H290.142V192.992H307.043C307.736 192.992 308.012 192.095 307.438 191.705L291.836 181.109C291.764 181.061 291.701 180.998 291.651 180.927L248.994 119.18C248.714 118.775 248.115 118.774 247.835 119.18L205.178 180.927C205.128 180.998 205.066 181.061 204.994 181.109L189.391 191.705C188.817 192.095 189.094 192.992 189.787 192.992H205.631V231.099C204.994 235.748 202.981 241.323 197.355 244.403C186.516 250.338 175.91 255.448 165.77 260.758V269.757H152.812C152.423 269.757 152.108 270.072 152.107 270.461V278.912H142.247C141.858 278.912 141.543 279.228 141.543 279.616V290.18H135.909C135.52 290.18 135.205 290.496 135.205 290.885V297.927H129.571C129.36 297.927 129.172 298.022 129.043 298.169V343H122V83.1279C122 71.4595 131.46 62.0001 143.128 62H353.701ZM250 200.529H258V204.294H250V225H246V204.294H238V200.529H246V193H250V200.529Z" fill="#D6673B"/>
<path d="M272.712 341.591V303.561C272.712 289.948 261.676 278.912 248.063 278.912C234.449 278.912 223.414 289.948 223.414 303.561V341.591C223.414 342.369 224.044 343 224.822 343H271.303C272.081 343 272.712 342.369 272.712 341.591Z" fill="#D6673B"/>
<path d="M123.72 393.007C123.72 389.341 126.664 386.342 130.386 386.342H148.271C151.937 386.342 154.936 389.341 154.936 393.007V405.227C154.936 407.06 153.436 408.56 151.604 408.56H147.882C145.994 408.56 144.549 407.06 144.549 405.227V400.117C144.549 398.228 143.05 396.729 141.217 396.729H138.106C136.273 396.729 134.829 398.228 134.829 400.117V412.725C134.829 414.558 136.273 416.058 138.106 416.058H152.27C154.159 416.058 155.658 417.558 155.658 419.391V424.667C155.658 426.5 154.159 428 152.27 428H130.386C126.664 428 123.72 425.001 123.72 421.335V393.007ZM160.644 386.342H189.249C190.194 386.342 190.916 387.064 190.916 388.008V395.062C190.916 396.007 190.194 396.729 189.249 396.729H171.087C170.142 396.729 169.42 397.506 169.42 398.395V401.339C169.42 402.283 170.142 403.005 171.087 403.005H183.029C183.917 403.005 184.695 403.727 184.695 404.671V411.726C184.695 412.67 183.917 413.392 183.029 413.392H171.087C170.142 413.392 169.42 414.169 169.42 415.058V415.891C169.42 416.836 170.142 417.558 171.087 417.558H189.249C190.194 417.558 190.916 418.335 190.916 419.224V426.334C190.916 427.278 190.194 428 189.249 428H160.644C159.7 428 158.978 427.278 158.978 426.334V388.008C158.978 387.064 159.7 386.342 160.644 386.342ZM227.451 386.342C228.34 386.342 229.062 387.119 229.062 388.008V396.118C229.062 397.006 228.34 397.728 227.451 397.728H218.231C217.342 397.728 216.62 398.45 216.62 399.45V426.334C216.62 427.278 215.842 428 214.898 428H207.844C206.955 428 206.122 427.278 206.122 426.334V399.45C206.122 398.45 205.4 397.728 204.511 397.728H195.346C194.402 397.728 193.68 397.006 193.68 396.118V388.008C193.68 387.119 194.402 386.342 195.346 386.342H227.451ZM246.045 407.004C245.878 407.782 246.489 408.56 247.322 408.56H250.988C251.821 408.56 252.377 407.782 252.266 407.004L250.377 397.784C250.266 397.173 249.766 396.729 249.155 396.729C248.544 396.729 248.044 397.173 247.878 397.784L246.045 407.004ZM231.825 426L239.491 387.675C239.657 386.897 240.324 386.342 241.157 386.342H257.154C257.931 386.342 258.653 386.897 258.764 387.675L266.429 426C266.652 427.056 265.874 428 264.819 428H257.82C256.987 428 256.32 427.445 256.154 426.667L254.876 420.279C254.765 419.502 254.043 418.946 253.266 418.946H245.045C244.212 418.946 243.545 419.502 243.379 420.279L242.101 426.667C241.99 427.445 241.268 428 240.49 428H233.492C232.436 428 231.659 427.056 231.825 426ZM303.011 386.342C303.899 386.342 304.621 387.119 304.621 388.008V396.118C304.621 397.006 303.899 397.728 303.011 397.728H293.79C292.902 397.728 292.179 398.45 292.179 399.45V426.334C292.179 427.278 291.402 428 290.458 428H283.403C282.515 428 281.682 427.278 281.682 426.334V399.45C281.682 398.45 280.96 397.728 280.071 397.728H270.906C269.962 397.728 269.24 397.006 269.24 396.118V388.008C269.24 387.119 269.962 386.342 270.906 386.342H303.011ZM309.051 386.342H337.657C338.601 386.342 339.323 387.064 339.323 388.008V395.062C339.323 396.007 338.601 396.729 337.657 396.729H319.494C318.549 396.729 317.827 397.506 317.827 398.395V401.339C317.827 402.283 318.549 403.005 319.494 403.005H331.436C332.324 403.005 333.102 403.727 333.102 404.671V411.726C333.102 412.67 332.324 413.392 331.436 413.392H319.494C318.549 413.392 317.827 414.169 317.827 415.058V415.891C317.827 416.836 318.549 417.558 319.494 417.558H337.657C338.601 417.558 339.323 418.335 339.323 419.224V426.334C339.323 427.278 338.601 428 337.657 428H309.051C308.107 428 307.385 427.278 307.385 426.334V388.008C307.385 387.064 308.107 386.342 309.051 386.342ZM356.862 407.004C356.695 407.782 357.306 408.56 358.14 408.56H361.805C362.639 408.56 363.194 407.782 363.083 407.004L361.194 397.784C361.083 397.173 360.583 396.729 359.972 396.729C359.361 396.729 358.862 397.173 358.695 397.784L356.862 407.004ZM342.643 426L350.308 387.675C350.474 386.897 351.141 386.342 351.974 386.342H367.971C368.748 386.342 369.471 386.897 369.582 387.675L377.247 426C377.469 427.056 376.691 428 375.636 428H368.637C367.804 428 367.138 427.445 366.971 426.667L365.694 420.279C365.582 419.502 364.86 418.946 364.083 418.946H355.862C355.029 418.946 354.363 419.502 354.196 420.279L352.918 426.667C352.807 427.445 352.085 428 351.308 428H344.309C343.254 428 342.476 427.056 342.643 426Z" fill="#D6673B"/>
<path d="M131.907 366.087C132.733 366.241 133.433 366.661 134.007 367.347C134.581 368.033 134.868 368.831 134.868 369.741C134.868 370.483 134.679 371.155 134.301 371.757C133.937 372.345 133.398 372.814 132.684 373.164C131.97 373.499 131.116 373.667 130.122 373.667H125.04V358.989H129.975C131.459 358.989 132.586 359.332 133.356 360.018C134.14 360.704 134.532 361.593 134.532 362.685C134.532 363.595 134.287 364.337 133.797 364.911C133.307 365.471 132.677 365.863 131.907 366.087ZM126.51 365.478H129.933C130.927 365.478 131.69 365.247 132.222 364.785C132.768 364.309 133.041 363.658 133.041 362.832C133.041 362.02 132.768 361.383 132.222 360.921C131.69 360.459 130.906 360.228 129.87 360.228H126.51V365.478ZM130.017 372.429C131.081 372.429 131.907 372.177 132.495 371.673C133.097 371.169 133.398 370.476 133.398 369.594C133.398 368.712 133.083 368.012 132.453 367.494C131.837 366.962 131.004 366.696 129.954 366.696H126.51V372.429H130.017ZM140.195 360.039C139.901 360.039 139.649 359.934 139.439 359.724C139.229 359.514 139.124 359.255 139.124 358.947C139.124 358.639 139.229 358.387 139.439 358.191C139.649 357.981 139.901 357.876 140.195 357.876C140.489 357.876 140.741 357.981 140.951 358.191C141.161 358.387 141.266 358.639 141.266 358.947C141.266 359.255 141.161 359.514 140.951 359.724C140.741 359.934 140.489 360.039 140.195 360.039ZM140.93 362.202V373.667H139.46V362.202H140.93ZM150.096 373.835C148.78 373.835 147.702 373.534 146.862 372.933C146.036 372.317 145.574 371.484 145.476 370.434H146.988C147.058 371.078 147.359 371.603 147.891 372.009C148.437 372.401 149.165 372.597 150.075 372.597C150.873 372.597 151.496 372.408 151.944 372.03C152.406 371.652 152.637 371.183 152.637 370.623C152.637 370.231 152.511 369.909 152.259 369.657C152.007 369.405 151.685 369.209 151.293 369.069C150.915 368.915 150.397 368.754 149.739 368.586C148.885 368.362 148.192 368.138 147.66 367.914C147.128 367.69 146.673 367.361 146.295 366.927C145.931 366.479 145.749 365.884 145.749 365.142C145.749 364.582 145.917 364.064 146.253 363.588C146.589 363.112 147.065 362.734 147.681 362.454C148.297 362.174 148.997 362.034 149.781 362.034C151.013 362.034 152.007 362.349 152.763 362.979C153.519 363.595 153.925 364.449 153.981 365.541H152.511C152.469 364.869 152.203 364.33 151.713 363.924C151.237 363.504 150.579 363.294 149.739 363.294C148.997 363.294 148.395 363.469 147.933 363.819C147.471 364.169 147.24 364.603 147.24 365.121C147.24 365.569 147.373 365.94 147.639 366.234C147.919 366.514 148.262 366.738 148.668 366.906C149.074 367.06 149.62 367.235 150.306 367.431C151.132 367.655 151.79 367.872 152.28 368.082C152.77 368.292 153.19 368.6 153.54 369.006C153.89 369.412 154.072 369.951 154.086 370.623C154.086 371.239 153.918 371.792 153.582 372.282C153.246 372.758 152.777 373.136 152.175 373.415C151.573 373.695 150.88 373.835 150.096 373.835ZM169.116 367.347C169.116 367.851 169.102 368.236 169.074 368.502H159.562C159.604 369.37 159.814 370.112 160.192 370.728C160.57 371.344 161.067 371.813 161.683 372.135C162.299 372.443 162.971 372.597 163.699 372.597C164.651 372.597 165.448 372.366 166.092 371.904C166.75 371.442 167.184 370.819 167.394 370.035H168.948C168.668 371.155 168.066 372.072 167.142 372.786C166.232 373.485 165.085 373.835 163.699 373.835C162.621 373.835 161.655 373.597 160.801 373.122C159.947 372.632 159.275 371.946 158.785 371.064C158.309 370.168 158.071 369.125 158.071 367.935C158.071 366.745 158.309 365.702 158.785 364.806C159.261 363.91 159.926 363.224 160.78 362.748C161.634 362.272 162.607 362.034 163.699 362.034C164.791 362.034 165.742 362.272 166.554 362.748C167.38 363.224 168.01 363.868 168.444 364.68C168.892 365.478 169.116 366.367 169.116 367.347ZM167.625 367.305C167.639 366.451 167.464 365.723 167.1 365.121C166.75 364.519 166.267 364.064 165.651 363.756C165.036 363.448 164.364 363.294 163.636 363.294C162.544 363.294 161.613 363.644 160.843 364.344C160.073 365.044 159.646 366.031 159.562 367.305H167.625ZM175.166 364.239C175.487 363.525 175.977 362.972 176.635 362.58C177.307 362.188 178.126 361.992 179.092 361.992V363.525H178.693C177.629 363.525 176.775 363.812 176.131 364.386C175.487 364.96 175.166 365.919 175.166 367.263V373.667H173.696V362.202H175.166V364.239ZM183.929 360.039C183.635 360.039 183.383 359.934 183.173 359.724C182.963 359.514 182.858 359.255 182.858 358.947C182.858 358.639 182.963 358.387 183.173 358.191C183.383 357.981 183.635 357.876 183.929 357.876C184.222 357.876 184.474 357.981 184.684 358.191C184.894 358.387 184.999 358.639 184.999 358.947C184.999 359.255 184.894 359.514 184.684 359.724C184.474 359.934 184.222 360.039 183.929 360.039ZM184.663 362.202V373.667H183.194V362.202H184.663ZM189.21 367.935C189.21 366.745 189.448 365.709 189.924 364.827C190.4 363.931 191.058 363.245 191.898 362.769C192.738 362.279 193.697 362.034 194.775 362.034C196.189 362.034 197.351 362.384 198.261 363.084C199.185 363.784 199.78 364.736 200.046 365.94H198.471C198.275 365.114 197.848 364.47 197.19 364.008C196.546 363.532 195.741 363.294 194.775 363.294C194.005 363.294 193.312 363.469 192.696 363.819C192.08 364.169 191.59 364.694 191.226 365.394C190.876 366.08 190.701 366.927 190.701 367.935C190.701 368.943 190.876 369.797 191.226 370.497C191.59 371.197 192.08 371.722 192.696 372.072C193.312 372.422 194.005 372.597 194.775 372.597C195.741 372.597 196.546 372.366 197.19 371.904C197.848 371.428 198.275 370.77 198.471 369.93H200.046C199.78 371.106 199.185 372.051 198.261 372.765C197.337 373.478 196.175 373.835 194.775 373.835C193.697 373.835 192.738 373.597 191.898 373.122C191.058 372.632 190.4 371.946 189.924 371.064C189.448 370.168 189.21 369.125 189.21 367.935ZM203.978 367.914C203.978 366.738 204.209 365.709 204.671 364.827C205.147 363.931 205.798 363.245 206.624 362.769C207.464 362.279 208.409 362.034 209.459 362.034C210.551 362.034 211.489 362.286 212.273 362.79C213.071 363.294 213.645 363.938 213.995 364.722V362.202H215.465V373.667H213.995V371.127C213.631 371.911 213.05 372.562 212.252 373.08C211.468 373.583 210.53 373.835 209.438 373.835C208.402 373.835 207.464 373.59 206.624 373.101C205.798 372.611 205.147 371.918 204.671 371.022C204.209 370.126 203.978 369.09 203.978 367.914ZM213.995 367.935C213.995 367.011 213.806 366.199 213.428 365.499C213.05 364.799 212.532 364.26 211.874 363.882C211.23 363.504 210.516 363.315 209.732 363.315C208.92 363.315 208.192 363.497 207.548 363.861C206.904 364.225 206.393 364.757 206.015 365.457C205.651 366.143 205.469 366.962 205.469 367.914C205.469 368.852 205.651 369.678 206.015 370.392C206.393 371.092 206.904 371.631 207.548 372.009C208.192 372.373 208.92 372.555 209.732 372.555C210.516 372.555 211.23 372.366 211.874 371.988C212.532 371.61 213.05 371.071 213.428 370.371C213.806 369.671 213.995 368.859 213.995 367.935ZM237.749 363.21C237.749 364.47 237.336 365.485 236.51 366.255C235.684 367.025 234.445 367.41 232.794 367.41H229.833V373.667H228.363V358.989H232.794C234.431 358.989 235.663 359.374 236.489 360.144C237.329 360.914 237.749 361.936 237.749 363.21ZM232.794 366.15C235.089 366.15 236.237 365.17 236.237 363.21C236.237 362.23 235.964 361.488 235.418 360.984C234.872 360.48 233.997 360.228 232.794 360.228H229.833V366.15H232.794ZM252.479 367.347C252.479 367.851 252.465 368.236 252.437 368.502H242.925C242.967 369.37 243.177 370.112 243.555 370.728C243.933 371.344 244.43 371.813 245.045 372.135C245.661 372.443 246.333 372.597 247.061 372.597C248.013 372.597 248.811 372.366 249.455 371.904C250.113 371.442 250.547 370.819 250.757 370.035H252.311C252.031 371.155 251.429 372.072 250.505 372.786C249.595 373.485 248.447 373.835 247.061 373.835C245.983 373.835 245.017 373.597 244.164 373.122C243.31 372.632 242.638 371.946 242.148 371.064C241.672 370.168 241.434 369.125 241.434 367.935C241.434 366.745 241.672 365.702 242.148 364.806C242.624 363.91 243.289 363.224 244.143 362.748C244.996 362.272 245.969 362.034 247.061 362.034C248.153 362.034 249.105 362.272 249.917 362.748C250.743 363.224 251.373 363.868 251.807 364.68C252.255 365.478 252.479 366.367 252.479 367.347ZM250.988 367.305C251.002 366.451 250.827 365.723 250.463 365.121C250.113 364.519 249.63 364.064 249.014 363.756C248.398 363.448 247.726 363.294 246.998 363.294C245.906 363.294 244.976 363.644 244.206 364.344C243.436 365.044 243.009 366.031 242.925 367.305H250.988ZM262.434 361.992C263.806 361.992 264.926 362.419 265.794 363.273C266.662 364.113 267.096 365.338 267.096 366.948V373.667H265.647V367.116C265.647 365.87 265.332 364.918 264.702 364.26C264.086 363.602 263.239 363.273 262.161 363.273C261.055 363.273 260.173 363.623 259.515 364.323C258.857 365.023 258.528 366.052 258.528 367.41V373.667H257.058V362.202H258.528V364.155C258.892 363.455 259.417 362.923 260.103 362.559C260.789 362.181 261.566 361.992 262.434 361.992ZM274.148 363.441V370.56C274.148 371.26 274.281 371.743 274.547 372.009C274.813 372.275 275.282 372.408 275.954 372.408H277.298V373.667H275.723C274.687 373.667 273.917 373.429 273.413 372.954C272.909 372.464 272.657 371.666 272.657 370.56V363.441H271.061V362.202H272.657V359.325H274.148V362.202H277.298V363.441H274.148ZM282.347 360.039C282.053 360.039 281.801 359.934 281.591 359.724C281.381 359.514 281.276 359.255 281.276 358.947C281.276 358.639 281.381 358.387 281.591 358.191C281.801 357.981 282.053 357.876 282.347 357.876C282.641 357.876 282.893 357.981 283.103 358.191C283.313 358.387 283.418 358.639 283.418 358.947C283.418 359.255 283.313 359.514 283.103 359.724C282.893 359.934 282.641 360.039 282.347 360.039ZM283.082 362.202V373.667H281.612V362.202H283.082ZM287.628 367.935C287.628 366.745 287.866 365.709 288.342 364.827C288.818 363.931 289.476 363.245 290.316 362.769C291.156 362.279 292.115 362.034 293.193 362.034C294.607 362.034 295.769 362.384 296.679 363.084C297.603 363.784 298.198 364.736 298.464 365.94H296.889C296.693 365.114 296.266 364.47 295.608 364.008C294.964 363.532 294.159 363.294 293.193 363.294C292.423 363.294 291.73 363.469 291.114 363.819C290.498 364.169 290.008 364.694 289.644 365.394C289.294 366.08 289.119 366.927 289.119 367.935C289.119 368.943 289.294 369.797 289.644 370.497C290.008 371.197 290.498 371.722 291.114 372.072C291.73 372.422 292.423 372.597 293.193 372.597C294.159 372.597 294.964 372.366 295.608 371.904C296.266 371.428 296.693 370.77 296.889 369.93H298.464C298.198 371.106 297.603 372.051 296.679 372.765C295.755 373.478 294.593 373.835 293.193 373.835C292.115 373.835 291.156 373.597 290.316 373.122C289.476 372.632 288.818 371.946 288.342 371.064C287.866 370.168 287.628 369.125 287.628 367.935ZM308.087 373.835C307.009 373.835 306.036 373.597 305.168 373.122C304.314 372.632 303.635 371.946 303.131 371.064C302.641 370.168 302.396 369.125 302.396 367.935C302.396 366.745 302.648 365.709 303.152 364.827C303.656 363.931 304.342 363.245 305.21 362.769C306.078 362.279 307.051 362.034 308.129 362.034C309.207 362.034 310.18 362.279 311.048 362.769C311.93 363.245 312.616 363.931 313.106 364.827C313.61 365.709 313.862 366.745 313.862 367.935C313.862 369.111 313.61 370.147 313.106 371.043C312.602 371.939 311.909 372.632 311.027 373.122C310.145 373.597 309.165 373.835 308.087 373.835ZM308.087 372.555C308.843 372.555 309.543 372.387 310.187 372.051C310.831 371.701 311.349 371.183 311.741 370.497C312.147 369.797 312.35 368.943 312.35 367.935C312.35 366.927 312.154 366.08 311.762 365.394C311.37 364.694 310.852 364.176 310.208 363.84C309.564 363.49 308.864 363.315 308.108 363.315C307.352 363.315 306.652 363.49 306.008 363.84C305.364 364.176 304.846 364.694 304.454 365.394C304.076 366.08 303.887 366.927 303.887 367.935C303.887 368.943 304.076 369.797 304.454 370.497C304.846 371.183 305.357 371.701 305.987 372.051C306.631 372.387 307.331 372.555 308.087 372.555ZM322.379 373.835C321.063 373.835 319.985 373.534 319.145 372.933C318.319 372.317 317.857 371.484 317.759 370.434H319.271C319.341 371.078 319.642 371.603 320.174 372.009C320.72 372.401 321.448 372.597 322.358 372.597C323.156 372.597 323.779 372.408 324.227 372.03C324.689 371.652 324.92 371.183 324.92 370.623C324.92 370.231 324.794 369.909 324.542 369.657C324.29 369.405 323.968 369.209 323.576 369.069C323.198 368.915 322.68 368.754 322.022 368.586C321.168 368.362 320.475 368.138 319.943 367.914C319.411 367.69 318.956 367.361 318.578 366.927C318.214 366.479 318.032 365.884 318.032 365.142C318.032 364.582 318.2 364.064 318.536 363.588C318.872 363.112 319.348 362.734 319.964 362.454C320.58 362.174 321.28 362.034 322.064 362.034C323.296 362.034 324.29 362.349 325.046 362.979C325.802 363.595 326.208 364.449 326.264 365.541H324.794C324.752 364.869 324.486 364.33 323.996 363.924C323.52 363.504 322.862 363.294 322.022 363.294C321.28 363.294 320.678 363.469 320.216 363.819C319.754 364.169 319.523 364.603 319.523 365.121C319.523 365.569 319.656 365.94 319.922 366.234C320.202 366.514 320.545 366.738 320.951 366.906C321.357 367.06 321.903 367.235 322.589 367.431C323.415 367.655 324.073 367.872 324.563 368.082C325.053 368.292 325.473 368.6 325.823 369.006C326.173 369.412 326.355 369.951 326.369 370.623C326.369 371.239 326.201 371.792 325.865 372.282C325.529 372.758 325.06 373.136 324.458 373.415C323.856 373.695 323.163 373.835 322.379 373.835ZM332.937 363.441V370.56C332.937 371.26 333.07 371.743 333.336 372.009C333.602 372.275 334.071 372.408 334.743 372.408H336.087V373.667H334.512C333.476 373.667 332.706 373.429 332.202 372.954C331.698 372.464 331.446 371.666 331.446 370.56V363.441H329.85V362.202H331.446V359.325H332.937V362.202H336.087V363.441H332.937ZM339.729 367.914C339.729 366.738 339.96 365.709 340.422 364.827C340.898 363.931 341.549 363.245 342.375 362.769C343.215 362.279 344.16 362.034 345.21 362.034C346.301 362.034 347.239 362.286 348.023 362.79C348.821 363.294 349.395 363.938 349.745 364.722V362.202H351.215V373.667H349.745V371.127C349.381 371.911 348.8 372.562 348.002 373.08C347.218 373.583 346.28 373.835 345.189 373.835C344.153 373.835 343.215 373.59 342.375 373.101C341.549 372.611 340.898 371.918 340.422 371.022C339.96 370.126 339.729 369.09 339.729 367.914ZM349.745 367.935C349.745 367.011 349.556 366.199 349.178 365.499C348.8 364.799 348.282 364.26 347.624 363.882C346.98 363.504 346.266 363.315 345.483 363.315C344.671 363.315 343.943 363.497 343.299 363.861C342.655 364.225 342.144 364.757 341.766 365.457C341.402 366.143 341.22 366.962 341.22 367.914C341.22 368.852 341.402 369.678 341.766 370.392C342.144 371.092 342.655 371.631 343.299 372.009C343.943 372.373 344.671 372.555 345.483 372.555C346.266 372.555 346.98 372.366 347.624 371.988C348.282 371.61 348.8 371.071 349.178 370.371C349.556 369.671 349.745 368.859 349.745 367.935ZM357.931 358.128V373.667H356.461V358.128H357.931ZM362.477 367.914C362.477 366.738 362.708 365.709 363.17 364.827C363.646 363.931 364.297 363.245 365.123 362.769C365.963 362.279 366.908 362.034 367.958 362.034C369.05 362.034 369.988 362.286 370.772 362.79C371.57 363.294 372.144 363.938 372.494 364.722V362.202H373.964V373.667H372.494V371.127C372.13 371.911 371.549 372.562 370.751 373.08C369.967 373.583 369.029 373.835 367.937 373.835C366.901 373.835 365.963 373.59 365.123 373.101C364.297 372.611 363.646 371.918 363.17 371.022C362.708 370.126 362.477 369.09 362.477 367.914ZM372.494 367.935C372.494 367.011 372.305 366.199 371.927 365.499C371.549 364.799 371.031 364.26 370.373 363.882C369.729 363.504 369.015 363.315 368.231 363.315C367.419 363.315 366.691 363.497 366.047 363.861C365.403 364.225 364.892 364.757 364.514 365.457C364.15 366.143 363.968 366.962 363.968 367.914C363.968 368.852 364.15 369.678 364.514 370.392C364.892 371.092 365.403 371.631 366.047 372.009C366.691 372.373 367.419 372.555 368.231 372.555C369.015 372.555 369.729 372.366 370.373 371.988C371.031 371.61 371.549 371.071 371.927 370.371C372.305 369.671 372.494 368.859 372.494 367.935ZM371.444 358.359C371.444 359.101 371.192 359.717 370.688 360.207C370.198 360.697 369.498 360.942 368.588 360.942C367.678 360.942 366.978 360.697 366.488 360.207C365.998 359.717 365.753 359.101 365.753 358.359V358.086H366.677C366.677 359.206 367.314 359.766 368.588 359.766C369.862 359.766 370.499 359.206 370.499 358.086H371.444V358.359Z" fill="#D6673B"/>
</svg>
